<?xml version='1.0' encoding='UTF-8'?>
<score-partwise><part-list><score-part id="P1" /></part-list><part id="P1"><measure number="1"><direction><sound tempo="700" /></direction><note><duration>12</duration><voice>1</voice><pitch><step>E</step><alter>0</alter><octave>4</octave></pitch><lyric><syllabic>single</syllabic><text>light</text></lyric></note></measure><measure number="2"><note><duration>12</duration><voice>1</voice><pitch><step>D</step><alter>0</alter><octave>4</octave></pitch><lyric><syllabic>single</syllabic><text>rain</text></lyric></note></measure><measure number="3"><note><duration>12</duration><voice>1</voice><pitch><step>F</step><alter>0</alter><octave>4</octave></pitch><lyric><syllabic>single</syllabic><text>the</text></lyric></note></measure><measure number="4"><note><duration>12</duration><voice>1</voice><pitch><step>F</step><alter>0</alter><octave>4</octave></pitch><lyric><syllabic>single</syllabic><text>weather</text></lyric></note></measure><measure number="5"><note><duration>12</duration><voice>1</voice><pitch><step>E</step><alter>0</alter><octave>4</octave></pitch><lyric><syllabic>single</syllabic><text>is</text></lyric></note></measure><measure number="6"><note><duration>12</duration><voice>1</voice><pitch><step>D</step><alter>0</alter><octave>4</octave></pitch><lyric><syllabic>single</syllabic><text>fore</text></lyric></note></measure><measure number="7"><note><duration>12</duration><voice>1</voice><pitch><step>F</step><alter>0</alter><octave>4</octave></pitch><lyric><syllabic>single</syllabic><text>casted</text></lyric></note></measure><measure number="8"><note><duration>12</duration><voice>1</voice><pitch><step>F</step><alter>0</alter><octave>4</octave></pitch><lyric><syllabic>single</syllabic><text>to</text></lyric></note></measure><measure number="9"><note><duration>12</duration><voice>1</voice><pitch><step>E</step><alter>0</alter><octave>4</octave></pitch><lyric><syllabic>single</syllabic><text>be</text></lyric></note></measure><measure number="10"><note><duration>12</duration><voice>1</voice><pitch><step>D</step><alter>0</alter><octave>4</octave></pitch><lyric><syllabic>single</syllabic><text>sunny</text></lyric></note></measure><measure number="11"><note><duration>12</duration><voice>1</voice><pitch><step>F</step><alter>0</alter><octave>4</octave></pitch><lyric><syllabic>single</syllabic><text>with</text></lyric></note></measure><measure number="12"><note><duration>12</duration><voice>1</voice><pitch><step>F</step><alter>0</alter><octave>4</octave></pitch><lyric><syllabic>single</syllabic><text>day</text></lyric></note></measure><measure number="13"><note><duration>12</duration><voice>1</voice><pitch><step>C</step><alter>0</alter><octave>4</octave></pitch><lyric><syllabic>single</syllabic><text>time</text></lyric></note></measure><measure number="14"><note><duration>12</duration><voice>1</voice><rest /></note></measure><measure number="15"><note><duration>12</duration><voice>1</voice><rest /></note></measure><measure number="16"><note><duration>12</duration><voice>1</voice><rest /></note></measure><measure number="17"><note><duration>12</duration><voice>1</voice><pitch><step>E</step><alter>0</alter><octave>4</octave></pitch><lyric><syllabic>single</syllabic><text>tem</text></lyric></note></measure><measure number="18"><note><duration>12</duration><voice>1</voice><pitch><step>D</step><alter>0</alter><octave>4</octave></pitch><lyric><syllabic>single</syllabic><text>pera</text></lyric></note></measure><measure number="19"><note><duration>12</duration><voice>1</voice><pitch><step>F</step><alter>0</alter><octave>4</octave></pitch><lyric><syllabic>single</syllabic><text>chure</text></lyric></note></measure><measure number="20"><note><duration>12</duration><voice>1</voice><pitch><step>F</step><alter>0</alter><octave>4</octave></pitch><lyric><syllabic>single</syllabic><text>rea</text></lyric></note></measure><measure number="21"><note><duration>12</duration><voice>1</voice><pitch><step>E</step><alter>0</alter><octave>4</octave></pitch><lyric><syllabic>single</syllabic><text>ching</text></lyric></note></measure><measure number="22"><note><duration>12</duration><voice>1</voice><pitch><step>D</step><alter>0</alter><octave>4</octave></pitch><lyric><syllabic>single</syllabic><text>sell</text></lyric></note></measure><measure number="23"><note><duration>12</duration><voice>1</voice><pitch><step>F</step><alter>0</alter><octave>4</octave></pitch><lyric><syllabic>single</syllabic><text>seeus</text></lyric></note></measure><measure number="24"><note><duration>12</duration><voice>1</voice><pitch><step>F</step><alter>0</alter><octave>4</octave></pitch><lyric><syllabic>single</syllabic><text>night</text></lyric></note></measure><measure number="25"><note><duration>12</duration><voice>1</voice><pitch><step>E</step><alter>0</alter><octave>4</octave></pitch><lyric><syllabic>single</syllabic><text>time</text></lyric></note></measure><measure number="26"><note><duration>12</duration><voice>1</voice><pitch><step>D</step><alter>0</alter><octave>4</octave></pitch><lyric><syllabic>single</syllabic><text>tem</text></lyric></note></measure><measure number="27"><note><duration>12</duration><voice>1</voice><pitch><step>F</step><alter>0</alter><octave>4</octave></pitch><lyric><syllabic>single</syllabic><text>pera</text></lyric></note></measure><measure number="28"><note><duration>12</duration><voice>1</voice><pitch><step>F</step><alter>0</alter><octave>4</octave></pitch><lyric><syllabic>single</syllabic><text>chure</text></lyric></note></measure><measure number="29"><note><duration>12</duration><voice>1</voice><pitch><step>C</step><alter>0</alter><octave>4</octave></pitch><lyric><syllabic>single</syllabic><text>are</text></lyric></note></measure><measure number="30"><note><duration>12</duration><voice>1</voice><rest /></note></measure><measure number="31"><note><duration>12</duration><voice>1</voice><rest /></note></measure><measure number="32"><note><duration>12</duration><voice>1</voice><rest /></note></measure><measure number="33"><note><duration>12</duration><voice>1</voice><pitch><step>A</step><alter>0</alter><octave>4</octave></pitch><lyric><syllabic>single</syllabic><text>lon</text></lyric></note></measure><measure number="34"><note><duration>12</duration><voice>1</voice><pitch><step>D</step><alter>0</alter><octave>4</octave></pitch><lyric><syllabic>single</syllabic><text>don</text></lyric></note></measure><measure number="35"><note><duration>12</duration><voice>1</voice><pitch><step>C</step><alter>0</alter><octave>4</octave></pitch><lyric><syllabic>single</syllabic><text>dihtee</text></lyric></note></measure><measure number="36"><note><duration>12</duration><voice>1</voice><pitch><step>B</step><alter>0</alter><octave>3</octave></pitch><lyric><syllabic>single</syllabic><text>will</text></lyric></note></measure><measure number="37"><note><duration>12</duration><voice>1</voice><pitch><step>A</step><alter>0</alter><octave>4</octave></pitch><lyric><syllabic>single</syllabic><text>be</text></lyric></note></measure><measure number="38"><note><duration>12</duration><voice>1</voice><pitch><step>D</step><alter>0</alter><octave>4</octave></pitch><lyric><syllabic>single</syllabic><text>uh</text></lyric></note></measure><measure number="39"><note><duration>12</duration><voice>1</voice><pitch><step>D</step><alter>0</alter><octave>4</octave></pitch><lyric><syllabic>single</syllabic><text>round</text></lyric></note></measure><measure number="40"><note><duration>12</duration><voice>1</voice><rest /></note></measure><measure number="41"><note><duration>12</duration><voice>1</voice><pitch><step>A</step><alter>0</alter><octave>4</octave></pitch><lyric><syllabic>single</syllabic><text>lon</text></lyric></note></measure><measure number="42"><note><duration>12</duration><voice>1</voice><pitch><step>D</step><alter>0</alter><octave>4</octave></pitch><lyric><syllabic>single</syllabic><text>don</text></lyric></note></measure><measure number="43"><note><duration>12</duration><voice>1</voice><pitch><step>C</step><alter>0</alter><octave>4</octave></pitch><lyric><syllabic>single</syllabic><text>dihtee</text></lyric></note></measure><measure number="44"><note><duration>12</duration><voice>1</voice><pitch><step>B</step><alter>0</alter><octave>3</octave></pitch><lyric><syllabic>single</syllabic><text>will</text></lyric></note></measure><measure number="45"><note><duration>12</duration><voice>1</voice><pitch><step>A</step><alter>0</alter><octave>4</octave></pitch><lyric><syllabic>single</syllabic><text>be</text></lyric></note></measure><measure number="46"><note><duration>12</duration><voice>1</voice><pitch><step>D</step><alter>0</alter><octave>4</octave></pitch><lyric><syllabic>single</syllabic><text>uh</text></lyric></note></measure><measure number="47"><note><duration>12</duration><voice>1</voice><pitch><step>E</step><alter>0</alter><octave>4</octave></pitch><lyric><syllabic>single</syllabic><text>round</text></lyric></note></measure><measure number="48"><note><duration>12</duration><voice>1</voice><rest /></note></measure><measure number="49"><note><duration>12</duration><voice>1</voice><pitch><step>E</step><alter>0</alter><octave>4</octave></pitch><lyric><syllabic>single</syllabic><text>ex</text></lyric></note></measure><measure number="50"><note><duration>12</duration><voice>1</voice><pitch><step>D</step><alter>0</alter><octave>4</octave></pitch><lyric><syllabic>single</syllabic><text>pected</text></lyric></note></measure><measure number="51"><note><duration>12</duration><voice>1</voice><pitch><step>F</step><alter>0</alter><octave>4</octave></pitch><lyric><syllabic>single</syllabic><text>to</text></lyric></note></measure><measure number="52"><note><duration>12</duration><voice>1</voice><pitch><step>F</step><alter>0</alter><octave>4</octave></pitch><lyric><syllabic>single</syllabic><text>be</text></lyric></note></measure><measure number="53"><note><duration>12</duration><voice>1</voice><pitch><step>E</step><alter>0</alter><octave>4</octave></pitch><lyric><syllabic>single</syllabic><text>sell</text></lyric></note></measure><measure number="54"><note><duration>12</duration><voice>1</voice><pitch><step>D</step><alter>0</alter><octave>4</octave></pitch><lyric><syllabic>single</syllabic><text>seeus</text></lyric></note></measure><measure number="55"><note><duration>12</duration><voice>1</voice><pitch><step>F</step><alter>0</alter><octave>4</octave></pitch><lyric><syllabic>single</syllabic><text>it</text></lyric></note></measure><measure number="56"><note><duration>12</duration><voice>1</voice><pitch><step>F</step><alter>0</alter><octave>4</octave></pitch><lyric><syllabic>single</syllabic><text>will</text></lyric></note></measure><measure number="57"><note><duration>12</duration><voice>1</voice><pitch><step>E</step><alter>0</alter><octave>4</octave></pitch><lyric><syllabic>single</syllabic><text>stay</text></lyric></note></measure><measure number="58"><note><duration>12</duration><voice>1</voice><pitch><step>D</step><alter>0</alter><octave>4</octave></pitch><lyric><syllabic>single</syllabic><text>dry</text></lyric></note></measure><measure number="59"><note><duration>12</duration><voice>1</voice><pitch><step>F</step><alter>0</alter><octave>4</octave></pitch><lyric><syllabic>single</syllabic><text>with</text></lyric></note></measure><measure number="60"><note><duration>12</duration><voice>1</voice><pitch><step>F</step><alter>0</alter><octave>4</octave></pitch><lyric><syllabic>single</syllabic><text>no</text></lyric></note></measure><measure number="61"><note><duration>12</duration><voice>1</voice><pitch><step>C</step><alter>0</alter><octave>4</octave></pitch><lyric><syllabic>single</syllabic><text>prihsih</text></lyric></note></measure><measure number="62"><note><duration>12</duration><voice>1</voice><rest /></note></measure><measure number="63"><note><duration>12</duration><voice>1</voice><rest /></note></measure><measure number="64"><note><duration>12</duration><voice>1</voice><rest /></note></measure><measure number="65"><note><duration>12</duration><voice>1</voice><pitch><step>E</step><alter>0</alter><octave>4</octave></pitch><lyric><syllabic>single</syllabic><text>pihtay</text></lyric></note></measure><measure number="66"><note><duration>12</duration><voice>1</voice><pitch><step>D</step><alter>0</alter><octave>4</octave></pitch><lyric><syllabic>single</syllabic><text>shun</text></lyric></note></measure><measure number="67"><note><duration>12</duration><voice>1</voice><pitch><step>F</step><alter>0</alter><octave>4</octave></pitch><lyric><syllabic>single</syllabic><text>the</text></lyric></note></measure><measure number="68"><note><duration>12</duration><voice>1</voice><pitch><step>F</step><alter>0</alter><octave>4</octave></pitch><lyric><syllabic>single</syllabic><text>visi</text></lyric></note></measure><measure number="69"><note><duration>12</duration><voice>1</voice><pitch><step>E</step><alter>0</alter><octave>4</octave></pitch><lyric><syllabic>single</syllabic><text>bili</text></lyric></note></measure><measure number="70"><note><duration>12</duration><voice>1</voice><pitch><step>D</step><alter>0</alter><octave>4</octave></pitch><lyric><syllabic>single</syllabic><text>tee</text></lyric></note></measure><measure number="71"><note><duration>12</duration><voice>1</voice><pitch><step>F</step><alter>0</alter><octave>4</octave></pitch><lyric><syllabic>single</syllabic><text>is</text></lyric></note></measure><measure number="72"><note><duration>12</duration><voice>1</voice><pitch><step>F</step><alter>0</alter><octave>4</octave></pitch><lyric><syllabic>single</syllabic><text>go</text></lyric></note></measure><measure number="73"><note><duration>12</duration><voice>1</voice><pitch><step>E</step><alter>0</alter><octave>4</octave></pitch><lyric><syllabic>single</syllabic><text>ing</text></lyric></note></measure><measure number="74"><note><duration>12</duration><voice>1</voice><pitch><step>D</step><alter>0</alter><octave>4</octave></pitch><lyric><syllabic>single</syllabic><text>to</text></lyric></note></measure><measure number="75"><note><duration>12</duration><voice>1</voice><pitch><step>F</step><alter>0</alter><octave>4</octave></pitch><lyric><syllabic>single</syllabic><text>be</text></lyric></note></measure><measure number="76"><note><duration>12</duration><voice>1</voice><pitch><step>F</step><alter>0</alter><octave>4</octave></pitch><lyric><syllabic>single</syllabic><text>uh</text></lyric></note></measure><measure number="77"><note><duration>12</duration><voice>1</voice><pitch><step>C</step><alter>0</alter><octave>4</octave></pitch><lyric><syllabic>single</syllabic><text>round</text></lyric></note></measure><measure number="78"><note><duration>12</duration><voice>1</voice><rest /></note></measure><measure number="79"><note><duration>12</duration><voice>1</voice><rest /></note></measure><measure number="80"><note><duration>12</duration><voice>1</voice><rest /></note></measure><measure number="81"><note><duration>12</duration><voice>1</voice><pitch><step>A</step><alter>0</alter><octave>4</octave></pitch><lyric><syllabic>single</syllabic><text>lon</text></lyric></note></measure><measure number="82"><note><duration>12</duration><voice>1</voice><pitch><step>D</step><alter>0</alter><octave>4</octave></pitch><lyric><syllabic>single</syllabic><text>don</text></lyric></note></measure><measure number="83"><note><duration>12</duration><voice>1</voice><pitch><step>C</step><alter>0</alter><octave>4</octave></pitch><lyric><syllabic>single</syllabic><text>dihtee</text></lyric></note></measure><measure number="84"><note><duration>12</duration><voice>1</voice><pitch><step>B</step><alter>0</alter><octave>3</octave></pitch><lyric><syllabic>single</syllabic><text>will</text></lyric></note></measure><measure number="85"><note><duration>12</duration><voice>1</voice><pitch><step>A</step><alter>0</alter><octave>4</octave></pitch><lyric><syllabic>single</syllabic><text>be</text></lyric></note></measure><measure number="86"><note><duration>12</duration><voice>1</voice><pitch><step>D</step><alter>0</alter><octave>4</octave></pitch><lyric><syllabic>single</syllabic><text>uh</text></lyric></note></measure><measure number="87"><note><duration>12</duration><voice>1</voice><pitch><step>D</step><alter>0</alter><octave>4</octave></pitch><lyric><syllabic>single</syllabic><text>round</text></lyric></note></measure><measure number="88"><note><duration>12</duration><voice>1</voice><rest /></note></measure><measure number="89"><note><duration>12</duration><voice>1</voice><pitch><step>A</step><alter>0</alter><octave>4</octave></pitch><lyric><syllabic>single</syllabic><text>lon</text></lyric></note></measure><measure number="90"><note><duration>12</duration><voice>1</voice><pitch><step>D</step><alter>0</alter><octave>4</octave></pitch><lyric><syllabic>single</syllabic><text>don</text></lyric></note></measure><measure number="91"><note><duration>12</duration><voice>1</voice><pitch><step>C</step><alter>0</alter><octave>4</octave></pitch><lyric><syllabic>single</syllabic><text>dihtee</text></lyric></note></measure><measure number="92"><note><duration>12</duration><voice>1</voice><pitch><step>B</step><alter>0</alter><octave>3</octave></pitch><lyric><syllabic>single</syllabic><text>will</text></lyric></note></measure><measure number="93"><note><duration>12</duration><voice>1</voice><pitch><step>A</step><alter>0</alter><octave>4</octave></pitch><lyric><syllabic>single</syllabic><text>be</text></lyric></note></measure><measure number="94"><note><duration>12</duration><voice>1</voice><pitch><step>D</step><alter>0</alter><octave>4</octave></pitch><lyric><syllabic>single</syllabic><text>uh</text></lyric></note></measure><measure number="95"><note><duration>12</duration><voice>1</voice><pitch><step>C</step><alter>0</alter><octave>4</octave></pitch><lyric><syllabic>single</syllabic><text>round</text></lyric></note></measure><measure number="96"><note><duration>12</duration><voice>1</voice><rest /></note></measure></part></score-partwise>
