<?xml version='1.0' encoding='UTF-8'?>
<score-partwise>
  <identification>
    <encoding>
      <software>MuseScore 2.1.0</software>
      <encoding-date>2017-08-26</encoding-date>
      <supports element="accidental" type="yes" />
      <supports element="beam" type="yes" />
      <supports attribute="new-page" element="print" type="yes" value="yes" />
      <supports attribute="new-system" element="print" type="yes" value="yes" />
      <supports element="stem" type="yes" />
      </encoding>
    </identification>
  <defaults>
    <scaling>
      <millimeters>7.05556</millimeters>
      <tenths>40</tenths>
      </scaling>
    <page-layout>
      <page-height>1683.78</page-height>
      <page-width>1190.55</page-width>
      <page-margins type="even">
        <left-margin>56.6929</left-margin>
        <right-margin>56.6929</right-margin>
        <top-margin>56.6929</top-margin>
        <bottom-margin>113.386</bottom-margin>
        </page-margins>
      <page-margins type="odd">
        <left-margin>56.6929</left-margin>
        <right-margin>56.6929</right-margin>
        <top-margin>56.6929</top-margin>
        <bottom-margin>113.386</bottom-margin>
        </page-margins>
      </page-layout>
    <word-font font-family="FreeSerif" font-size="10" />
    <lyric-font font-family="FreeSerif" font-size="11" />
    </defaults>
  <part-list>
    <score-part id="P8">
      <part-name>Horn in F</part-name>
      <part-abbreviation>F Hn.</part-abbreviation>
      <score-instrument id="P8-I1">
        <instrument-name>Horn in F</instrument-name>
        </score-instrument>
      <midi-device id="P8-I1" port="1" />
      <midi-instrument id="P8-I1">
        <midi-channel>15</midi-channel>
        <midi-program>61</midi-program>
        <volume>78.7402</volume>
        <pan>0</pan>
        </midi-instrument>
      </score-part>
    </part-list>
  <part id="P8">
    <measure number="1" width="152.26">
      <print>
        <staff-layout number="1">
          <staff-distance>65.00</staff-distance>
          </staff-layout>
        </print>
      <attributes>
        <divisions>480</divisions>
        <key>
          <fifths>0</fifths>
          </key>
        <time>
          <beats>4</beats>
          <beat-type>4</beat-type>
          </time>
        <clef>
          <sign>G</sign>
          <line>2</line>
          </clef>
        <transpose>
          <diatonic>-4</diatonic>
          <chromatic>-7</chromatic>
          </transpose>
        </attributes>
      <note>
        <rest />
        <duration>1920</duration>
        <voice>1</voice>
        </note>
      </measure>
    <measure number="2" width="141.16">
      <note>
        <rest />
        <duration>1920</duration>
        <voice>1</voice>
        </note>
      </measure>
    <measure number="3" width="342.24">
      <note>
        <rest />
        <duration>1920</duration>
        <voice>1</voice>
        </note>
      </measure>
    <measure number="4" width="966.48">
      <print new-page="yes">
        <staff-layout number="1">
          <staff-distance>65.00</staff-distance>
          </staff-layout>
        </print>
      <note>
        <rest />
        <duration>1920</duration>
        <voice>1</voice>
        </note>
      </measure>
    <measure number="5" width="966.48">
      <print new-page="yes">
        <staff-layout number="1">
          <staff-distance>65.00</staff-distance>
          </staff-layout>
        </print>
      <note>
        <rest />
        <duration>1920</duration>
        <voice>1</voice>
        </note>
      </measure>
    <measure number="6" width="966.48">
      <print new-page="yes">
        <staff-layout number="1">
          <staff-distance>65.00</staff-distance>
          </staff-layout>
        </print>
      <note>
        <rest />
        <duration>1920</duration>
        <voice>1</voice>
        </note>
      </measure>
    <measure number="7" width="966.48">
      <print new-page="yes">
        <staff-layout number="1">
          <staff-distance>65.00</staff-distance>
          </staff-layout>
        </print>
      <note>
        <rest />
        <duration>1920</duration>
        <voice>1</voice>
        </note>
      </measure>
    <measure number="8" width="966.48">
      <print new-page="yes">
        <staff-layout number="1">
          <staff-distance>65.00</staff-distance>
          </staff-layout>
        </print>
      <note>
        <rest />
        <duration>1920</duration>
        <voice>1</voice>
        </note>
      </measure>
    <measure number="9" width="966.48">
      <print new-page="yes">
        <staff-layout number="1">
          <staff-distance>65.00</staff-distance>
          </staff-layout>
        </print>
      <note>
        <rest />
        <duration>1920</duration>
        <voice>1</voice>
        </note>
      </measure>
    <measure number="10" width="966.48">
      <print new-page="yes">
        <staff-layout number="1">
          <staff-distance>65.00</staff-distance>
          </staff-layout>
        </print>
      <note>
        <rest />
        <duration>1920</duration>
        <voice>1</voice>
        </note>
      </measure>
    <measure number="11" width="966.48">
      <print new-page="yes">
        <staff-layout number="1">
          <staff-distance>65.00</staff-distance>
          </staff-layout>
        </print>
      <note>
        <rest />
        <duration>1920</duration>
        <voice>1</voice>
        </note>
      </measure>
    <measure number="12" width="966.48">
      <print new-page="yes">
        <staff-layout number="1">
          <staff-distance>65.00</staff-distance>
          </staff-layout>
        </print>
      <note>
        <rest />
        <duration>1920</duration>
        <voice>1</voice>
        </note>
      </measure>
    <measure number="13" width="966.48">
      <print new-page="yes">
        <staff-layout number="1">
          <staff-distance>65.00</staff-distance>
          </staff-layout>
        </print>
      <note>
        <rest />
        <duration>480</duration>
        <voice>1</voice>
        <type>quarter</type>
        </note>
      <note default-x="224.69" default-y="-750.00" dynamics="95.56">
        <pitch>
          <step>C</step>
          <octave>4</octave>
          <alter>0</alter></pitch>
        <duration>480</duration>
        <voice>1</voice>
        <type>quarter</type>
        <stem>down</stem>
        <lyric><text>Part</text></lyric></note>
      <note default-x="494.75" default-y="-750.00" dynamics="85.56">
        <pitch>
          <step>C</step>
          <octave>4</octave>
          <alter>0</alter></pitch>
        <duration>480</duration>
        <voice>1</voice>
        <type>quarter</type>
        <stem>down</stem>
        <lyric><text>lee</text></lyric></note>
      <note default-x="688.51" default-y="-745.00" dynamics="81.11">
        <pitch>
          <step>D</step>
          <octave>4</octave>
          <alter>0</alter></pitch>
        <duration>480</duration>
        <voice>1</voice>
        <type>quarter</type>
        <stem>down</stem>
        <lyric><text>clow</text></lyric></note>
      </measure>
    <measure number="14" width="966.48">
      <print new-page="yes">
        <staff-layout number="1">
          <staff-distance>65.00</staff-distance>
          </staff-layout>
        </print>
      <note default-x="54.00" default-y="-740.00" dynamics="64.44">
        <pitch>
          <step>E</step>
          <octave>4</octave>
          <alter>0</alter></pitch>
        <duration>480</duration>
        <voice>1</voice>
        <type>quarter</type>
        <stem>down</stem>
        <notations>
          <articulations>
            <staccato />
            </articulations>
          </notations>
        <lyric><text>dee</text></lyric></note>
      <note default-x="228.99" default-y="-740.00" dynamics="85.56">
        <pitch>
          <step>E</step>
          <octave>4</octave>
          <alter>0</alter></pitch>
        <duration>160</duration>
        <voice>1</voice>
        <type>eighth</type>
        <time-modification>
          <actual-notes>3</actual-notes>
          <normal-notes>2</normal-notes>
          </time-modification>
        <stem>down</stem>
        <notations>
          <tuplet bracket="yes" type="start" />
          </notations>
        <lyric><text>High</text></lyric></note>
      <note>
        <rest />
        <duration>160</duration>
        <voice>1</voice>
        <type>eighth</type>
        <time-modification>
          <actual-notes>3</actual-notes>
          <normal-notes>2</normal-notes>
          </time-modification>
        </note>
      <note default-x="383.37" default-y="-740.00" dynamics="81.11">
        <pitch>
          <step>E</step>
          <octave>4</octave>
          <alter>0</alter></pitch>
        <duration>160</duration>
        <voice>1</voice>
        <type>eighth</type>
        <time-modification>
          <actual-notes>3</actual-notes>
          <normal-notes>2</normal-notes>
          </time-modification>
        <stem>down</stem>
        <notations>
          <tuplet type="stop" />
          </notations>
        <lyric><text>chance</text></lyric></note>
      <note default-x="474.20" default-y="-735.00" dynamics="91.11">
        <pitch>
          <step>F</step>
          <octave>4</octave>
          <alter>0</alter></pitch>
        <duration>160</duration>
        <voice>1</voice>
        <type>eighth</type>
        <time-modification>
          <actual-notes>3</actual-notes>
          <normal-notes>2</normal-notes>
          </time-modification>
        <stem>down</stem>
        <notations>
          <tuplet bracket="yes" type="start" />
          <articulations>
            <staccato />
            </articulations>
          </notations>
        <lyric><text>of</text></lyric></note>
      <note>
        <rest />
        <duration>160</duration>
        <voice>1</voice>
        <type>eighth</type>
        <time-modification>
          <actual-notes>3</actual-notes>
          <normal-notes>2</normal-notes>
          </time-modification>
        </note>
      <note default-x="628.30" default-y="-740.00" dynamics="73.33">
        <pitch>
          <step>E</step>
          <octave>4</octave>
          <alter>0</alter></pitch>
        <duration>160</duration>
        <voice>1</voice>
        <type>eighth</type>
        <time-modification>
          <actual-notes>3</actual-notes>
          <normal-notes>2</normal-notes>
          </time-modification>
        <stem>down</stem>
        <notations>
          <tuplet type="stop" />
          </notations>
        <lyric><text>show</text></lyric></note>
      <note default-x="721.88" default-y="-745.00" dynamics="92.22">
        <pitch>
          <step>D</step>
          <octave>4</octave>
          <alter>0</alter></pitch>
        <duration>160</duration>
        <voice>1</voice>
        <type>eighth</type>
        <time-modification>
          <actual-notes>3</actual-notes>
          <normal-notes>2</normal-notes>
          </time-modification>
        <stem>down</stem>
        <notations>
          <tuplet bracket="yes" type="start" />
          <articulations>
            <staccato />
            </articulations>
          </notations>
        <lyric><text>ers</text></lyric></note>
      <note>
        <rest />
        <duration>160</duration>
        <voice>1</voice>
        <type>eighth</type>
        <time-modification>
          <actual-notes>3</actual-notes>
          <normal-notes>2</normal-notes>
          </time-modification>
        </note>
      <note default-x="855.86" default-y="-750.00" dynamics="88.89">
        <pitch>
          <step>C</step>
          <octave>4</octave>
          <alter>0</alter></pitch>
        <duration>160</duration>
        <voice>1</voice>
        <type>eighth</type>
        <time-modification>
          <actual-notes>3</actual-notes>
          <normal-notes>2</normal-notes>
          </time-modification>
        <stem>down</stem>
        <notations>
          <tuplet type="stop" />
          <articulations>
            <staccato />
            </articulations>
          </notations>
        <lyric><text>most</text></lyric></note>
      </measure>
    <measure number="15" width="966.48">
      <print new-page="yes">
        <staff-layout number="1">
          <staff-distance>65.00</staff-distance>
          </staff-layout>
        </print>
      <note default-x="56.50" default-y="-740.00" dynamics="75.56">
        <pitch>
          <step>E</step>
          <octave>4</octave>
          <alter>0</alter></pitch>
        <duration>480</duration>
        <voice>1</voice>
        <type>quarter</type>
        <stem>down</stem>
        <notations>
          <articulations>
            <staccato />
            </articulations>
          </notations>
        <lyric><text>like</text></lyric></note>
      <note>
        <rest />
        <duration>480</duration>
        <voice>1</voice>
        <type>quarter</type>
        </note>
      <note>
        <rest />
        <duration>480</duration>
        <voice>1</voice>
        <type>quarter</type>
        </note>
      <note>
        <rest />
        <duration>320</duration>
        <voice>1</voice>
        <type>quarter</type>
        <time-modification>
          <actual-notes>3</actual-notes>
          <normal-notes>2</normal-notes>
          <normal-type>eighth</normal-type>
          </time-modification>
        <notations>
          <tuplet bracket="yes" type="start" />
          </notations>
        </note>
      <note default-x="864.34" default-y="-765.00" dynamics="85.56">
        <pitch>
          <step>G</step>
          <octave>3</octave>
          <alter>0</alter></pitch>
        <duration>160</duration>
        <voice>1</voice>
        <type>eighth</type>
        <time-modification>
          <actual-notes>3</actual-notes>
          <normal-notes>2</normal-notes>
          <normal-type>eighth</normal-type>
          </time-modification>
        <stem>up</stem>
        <notations>
          <tuplet type="stop" />
          </notations>
        <lyric><text>lee</text></lyric></note>
      </measure>
    <measure number="16" width="966.48">
      <print new-page="yes">
        <staff-layout number="1">
          <staff-distance>65.00</staff-distance>
          </staff-layout>
        </print>
      <note default-x="69.76" default-y="-730.00" dynamics="96.67">
        <pitch>
          <step>G</step>
          <octave>4</octave>
          <alter>0</alter></pitch>
        <duration>480</duration>
        <voice>1</voice>
        <type>quarter</type>
        <stem>down</stem>
        <notations>
          <articulations>
            <staccato />
            </articulations>
          </notations>
        <lyric><text>in</text></lyric></note>
      <note default-x="269.59" default-y="-730.00" dynamics="88.89">
        <pitch>
          <step>G</step>
          <octave>4</octave>
          <alter>0</alter></pitch>
        <duration>160</duration>
        <voice>1</voice>
        <type>eighth</type>
        <time-modification>
          <actual-notes>3</actual-notes>
          <normal-notes>2</normal-notes>
          </time-modification>
        <stem>down</stem>
        <notations>
          <tuplet bracket="yes" type="start" />
          </notations>
        <lyric><text>the</text></lyric></note>
      <note>
        <rest />
        <duration>160</duration>
        <voice>1</voice>
        <type>eighth</type>
        <time-modification>
          <actual-notes>3</actual-notes>
          <normal-notes>2</normal-notes>
          </time-modification>
        </note>
      <note default-x="450.95" default-y="-730.00" dynamics="92.22">
        <pitch>
          <step>G</step>
          <octave>4</octave>
          <alter>0</alter></pitch>
        <duration>160</duration>
        <voice>1</voice>
        <type>eighth</type>
        <time-modification>
          <actual-notes>3</actual-notes>
          <normal-notes>2</normal-notes>
          </time-modification>
        <stem>down</stem>
        <notations>
          <tuplet type="stop" />
          </notations>
        <lyric><text>mor</text></lyric></note>
      <note default-x="538.28" default-y="-725.00" dynamics="88.89">
        <pitch>
          <step>A</step>
          <octave>4</octave>
          <alter>0</alter></pitch>
        <duration>160</duration>
        <voice>1</voice>
        <type>eighth</type>
        <time-modification>
          <actual-notes>3</actual-notes>
          <normal-notes>2</normal-notes>
          </time-modification>
        <stem>down</stem>
        <notations>
          <tuplet bracket="yes" type="start" />
          <articulations>
            <staccato />
            </articulations>
          </notations>
        <lyric><text>ning</text></lyric></note>
      <note>
        <rest />
        <duration>160</duration>
        <voice>1</voice>
        <type>eighth</type>
        <time-modification>
          <actual-notes>3</actual-notes>
          <normal-notes>2</normal-notes>
          </time-modification>
        </note>
      <note default-x="667.07" default-y="-730.00" dynamics="81.11">
        <pitch>
          <step>G</step>
          <octave>4</octave>
          <alter>0</alter></pitch>
        <duration>160</duration>
        <voice>1</voice>
        <type>eighth</type>
        <time-modification>
          <actual-notes>3</actual-notes>
          <normal-notes>2</normal-notes>
          </time-modification>
        <stem>down</stem>
        <notations>
          <tuplet type="stop" />
          </notations>
        <lyric><text>Snow</text></lyric></note>
      <note default-x="773.15" default-y="-735.00" dynamics="91.11">
        <pitch>
          <step>F</step>
          <octave>4</octave>
          <alter>0</alter></pitch>
        <duration>240</duration>
        <voice>1</voice>
        <type>eighth</type>
        <stem>down</stem>
        <notations>
          <articulations>
            <staccato />
            </articulations>
          </notations>
        <lyric><text>fall</text></lyric></note>
      <note>
        <rest />
        <duration>60</duration>
        <voice>1</voice>
        <type>32nd</type>
        </note>
      <note default-x="863.33" default-y="-740.00" dynamics="81.11">
        <pitch>
          <step>E</step>
          <octave>4</octave>
          <alter>0</alter></pitch>
        <duration>180</duration>
        <voice>1</voice>
        <type>16th</type>
        <dot />
        <stem>down</stem>
        <notations>
          <articulations>
            <staccato />
            </articulations>
          </notations>
        <lyric><text>ling</text></lyric></note>
      </measure>
    <measure number="17" width="966.48">
      <print new-page="yes">
        <staff-layout number="1">
          <staff-distance>65.00</staff-distance>
          </staff-layout>
        </print>
      <note default-x="69.26" default-y="-740.00" dynamics="95.56">
        <pitch>
          <step>E</step>
          <octave>4</octave>
          <alter>0</alter></pitch>
        <duration>480</duration>
        <voice>1</voice>
        <type>quarter</type>
        <stem>down</stem>
        <lyric><text>uh</text></lyric></note>
      <note default-x="261.99" default-y="-735.00" dynamics="91.11">
        <pitch>
          <step>F</step>
          <octave>4</octave>
          <alter>0</alter></pitch>
        <duration>480</duration>
        <voice>1</voice>
        <type>quarter</type>
        <stem>down</stem>
        <lyric><text>bove</text></lyric></note>
      <note default-x="521.15" default-y="-745.00" dynamics="85.56">
        <pitch>
          <step>D</step>
          <octave>4</octave>
          <alter>0</alter></pitch>
        <duration>480</duration>
        <voice>1</voice>
        <type>quarter</type>
        <stem>down</stem>
        <lyric><text>sev</text></lyric></note>
      <note default-x="772.15" default-y="-750.00" dynamics="92.22">
        <pitch>
          <step>C</step>
          <octave>4</octave>
          <alter>0</alter></pitch>
        <duration>480</duration>
        <voice>1</voice>
        <type>quarter</type>
        <stem>down</stem>
        <lyric><text>ven</text></lyric></note>
      </measure>
    <measure number="18" width="966.48">
      <print new-page="yes">
        <staff-layout number="1">
          <staff-distance>65.00</staff-distance>
          </staff-layout>
        </print>
      <note default-x="52.17" default-y="-720.00" dynamics="92.22">
        <pitch>
          <step>B</step>
          <octave>4</octave>
          <alter>0</alter></pitch>
        <duration>480</duration>
        <voice>1</voice>
        <type>quarter</type>
        <stem>down</stem>
        <lyric><text>hun</text></lyric></note>
      <note>
        <rest />
        <duration>480</duration>
        <voice>1</voice>
        <type>quarter</type>
        </note>
      <note default-x="499.78" default-y="-725.00" dynamics="96.67">
        <pitch>
          <step>A</step>
          <octave>4</octave>
          <alter>0</alter></pitch>
        <duration>160</duration>
        <voice>1</voice>
        <type>eighth</type>
        <time-modification>
          <actual-notes>3</actual-notes>
          <normal-notes>2</normal-notes>
          </time-modification>
        <stem>down</stem>
        <notations>
          <tuplet bracket="yes" type="start" />
          </notations>
        <lyric><text>dred</text></lyric></note>
      <note>
        <rest />
        <duration>160</duration>
        <voice>1</voice>
        <type>eighth</type>
        <time-modification>
          <actual-notes>3</actual-notes>
          <normal-notes>2</normal-notes>
          </time-modification>
        </note>
      <note default-x="627.09" default-y="-730.00" dynamics="81.11">
        <pitch>
          <step>G</step>
          <octave>4</octave>
          <alter>0</alter></pitch>
        <duration>160</duration>
        <voice>1</voice>
        <type>eighth</type>
        <time-modification>
          <actual-notes>3</actual-notes>
          <normal-notes>2</normal-notes>
          </time-modification>
        <stem>down</stem>
        <notations>
          <tuplet type="stop" />
          </notations>
        <lyric><text>me</text></lyric></note>
      <note default-x="732.33" default-y="-740.00" dynamics="81.11">
        <pitch>
          <step>E</step>
          <octave>4</octave>
          <alter>0</alter></pitch>
        <duration>160</duration>
        <voice>1</voice>
        <type>eighth</type>
        <time-modification>
          <actual-notes>3</actual-notes>
          <normal-notes>2</normal-notes>
          </time-modification>
        <stem>down</stem>
        <notations>
          <tuplet bracket="yes" type="start" />
          <articulations>
            <staccato />
            </articulations>
          </notations>
        <lyric><text>ters</text></lyric></note>
      <note>
        <rest />
        <duration>160</duration>
        <voice>1</voice>
        <type>eighth</type>
        <time-modification>
          <actual-notes>3</actual-notes>
          <normal-notes>2</normal-notes>
          </time-modification>
        </note>
      <note default-x="859.64" default-y="-755.00" dynamics="96.67">
        <pitch>
          <step>B</step>
          <octave>3</octave>
          <alter>0</alter></pitch>
        <duration>160</duration>
        <voice>1</voice>
        <type>eighth</type>
        <time-modification>
          <actual-notes>3</actual-notes>
          <normal-notes>2</normal-notes>
          </time-modification>
        <stem>down</stem>
        <notations>
          <tuplet type="stop" />
          </notations>
        <lyric><text>Poss</text></lyric></note>
      </measure>
    <measure number="19" width="966.48">
      <print new-page="yes">
        <staff-layout number="1">
          <staff-distance>65.00</staff-distance>
          </staff-layout>
        </print>
      <note default-x="53.54" default-y="-720.00" dynamics="85.56">
        <pitch>
          <step>B</step>
          <octave>4</octave>
          <alter>0</alter></pitch>
        <duration>480</duration>
        <voice>1</voice>
        <type>quarter</type>
        <stem>down</stem>
        <lyric><text>uh</text></lyric></note>
      <note>
        <rest />
        <duration>480</duration>
        <voice>1</voice>
        <type>quarter</type>
        </note>
      <note default-x="563.48" default-y="-725.00" dynamics="95.56">
        <pitch>
          <step>A</step>
          <octave>4</octave>
          <alter>0</alter></pitch>
        <duration>480</duration>
        <voice>1</voice>
        <type>quarter</type>
        <stem>down</stem>
        <lyric><text>ble</text></lyric></note>
      <note>
        <rest />
        <duration>480</duration>
        <voice>1</voice>
        <type>quarter</type>
        </note>
      </measure>
    <measure number="20" width="966.48">
      <print new-page="yes">
        <staff-layout number="1">
          <staff-distance>65.00</staff-distance>
          </staff-layout>
        </print>
      <note default-x="69.26" default-y="-730.00" dynamics="95.56">
        <pitch>
          <step>G</step>
          <octave>4</octave>
          <alter>0</alter></pitch>
        <duration>480</duration>
        <voice>1</voice>
        <type>quarter</type>
        <stem>down</stem>
        <notations>
          <articulations>
            <staccato />
            </articulations>
          </notations>
        <lyric><text>hail</text></lyric></note>
      <note default-x="221.90" default-y="-730.00" dynamics="96.67">
        <pitch>
          <step>G</step>
          <octave>4</octave>
          <alter>0</alter></pitch>
        <duration>160</duration>
        <voice>1</voice>
        <type>eighth</type>
        <time-modification>
          <actual-notes>3</actual-notes>
          <normal-notes>2</normal-notes>
          </time-modification>
        <stem>down</stem>
        <notations>
          <tuplet bracket="yes" type="start" />
          </notations>
        <lyric><text>in</text></lyric></note>
      <note>
        <rest />
        <duration>160</duration>
        <voice>1</voice>
        <type>eighth</type>
        <time-modification>
          <actual-notes>3</actual-notes>
          <normal-notes>2</normal-notes>
          </time-modification>
        </note>
      <note default-x="390.00" default-y="-740.00" dynamics="88.89">
        <pitch>
          <step>E</step>
          <octave>4</octave>
          <alter>0</alter></pitch>
        <duration>160</duration>
        <voice>1</voice>
        <type>eighth</type>
        <time-modification>
          <actual-notes>3</actual-notes>
          <normal-notes>2</normal-notes>
          </time-modification>
        <stem>down</stem>
        <notations>
          <tuplet type="stop" />
          </notations>
        <lyric><text>the</text></lyric></note>
      <note default-x="470.23" default-y="-735.00" dynamics="91.11">
        <pitch>
          <step>F</step>
          <octave>4</octave>
          <alter>0</alter></pitch>
        <duration>160</duration>
        <voice>1</voice>
        <type>eighth</type>
        <time-modification>
          <actual-notes>3</actual-notes>
          <normal-notes>2</normal-notes>
          </time-modification>
        <stem>down</stem>
        <notations>
          <tuplet bracket="yes" type="start" />
          </notations>
        <lyric><text>morn</text></lyric></note>
      <note>
        <rest />
        <duration>160</duration>
        <voice>1</voice>
        <type>eighth</type>
        <time-modification>
          <actual-notes>3</actual-notes>
          <normal-notes>2</normal-notes>
          </time-modification>
        </note>
      <note default-x="587.10" default-y="-730.00" dynamics="85.56">
        <pitch>
          <step>G</step>
          <octave>4</octave>
          <alter>0</alter></pitch>
        <duration>160</duration>
        <voice>1</voice>
        <type>eighth</type>
        <time-modification>
          <actual-notes>3</actual-notes>
          <normal-notes>2</normal-notes>
          </time-modification>
        <stem>down</stem>
        <notations>
          <tuplet type="stop" />
          <articulations>
            <staccato />
            </articulations>
          </notations>
        <lyric><text>ning</text></lyric></note>
      <note default-x="686.41" default-y="-735.00" dynamics="94.44">
        <pitch>
          <step>F</step>
          <octave>4</octave>
          <alter>0</alter></pitch>
        <duration>160</duration>
        <voice>1</voice>
        <type>eighth</type>
        <time-modification>
          <actual-notes>3</actual-notes>
          <normal-notes>2</normal-notes>
          </time-modification>
        <stem>down</stem>
        <notations>
          <tuplet bracket="yes" type="start" />
          </notations>
        <lyric><text>and</text></lyric></note>
      <note>
        <rest />
        <duration>160</duration>
        <voice>1</voice>
        <type>eighth</type>
        <time-modification>
          <actual-notes>3</actual-notes>
          <normal-notes>2</normal-notes>
          </time-modification>
        </note>
      <note default-x="885.65" default-y="-740.00" dynamics="75.56">
        <pitch>
          <step>E</step>
          <octave>4</octave>
          <alter>0</alter></pitch>
        <duration>160</duration>
        <voice>1</voice>
        <type>eighth</type>
        <time-modification>
          <actual-notes>3</actual-notes>
          <normal-notes>2</normal-notes>
          </time-modification>
        <stem>down</stem>
        <notations>
          <tuplet type="stop" />
          </notations>
        <lyric><text>af</text></lyric></note>
      </measure>
    <measure number="21" width="966.48">
      <print new-page="yes">
        <staff-layout number="1">
          <staff-distance>65.00</staff-distance>
          </staff-layout>
        </print>
      <note default-x="63.94" default-y="-730.00" dynamics="95.56">
        <pitch>
          <step>G</step>
          <octave>4</octave>
          <alter>0</alter></pitch>
        <duration>480</duration>
        <voice>1</voice>
        <type>quarter</type>
        <stem>down</stem>
        <notations>
          <articulations>
            <staccato />
            </articulations>
          </notations>
        <lyric><text>ter</text></lyric></note>
      <note default-x="263.47" default-y="-730.00" dynamics="96.67">
        <pitch>
          <step>G</step>
          <octave>4</octave>
          <alter>0</alter></pitch>
        <duration>160</duration>
        <voice>1</voice>
        <type>eighth</type>
        <time-modification>
          <actual-notes>3</actual-notes>
          <normal-notes>2</normal-notes>
          </time-modification>
        <stem>down</stem>
        <notations>
          <tuplet bracket="yes" type="start" />
          </notations>
        <lyric><text>noon</text></lyric></note>
      <note>
        <rest />
        <duration>160</duration>
        <voice>1</voice>
        <type>eighth</type>
        <time-modification>
          <actual-notes>3</actual-notes>
          <normal-notes>2</normal-notes>
          </time-modification>
        </note>
      <note default-x="435.21" default-y="-740.00" dynamics="75.56">
        <pitch>
          <step>E</step>
          <octave>4</octave>
          <alter>0</alter></pitch>
        <duration>160</duration>
        <voice>1</voice>
        <type>eighth</type>
        <time-modification>
          <actual-notes>3</actual-notes>
          <normal-notes>2</normal-notes>
          </time-modification>
        <stem>down</stem>
        <notations>
          <tuplet type="stop" />
          <articulations>
            <staccato />
            </articulations>
          </notations>
        <lyric><text>Winds</text></lyric></note>
      <note default-x="520.27" default-y="-735.00" dynamics="96.67">
        <pitch>
          <step>F</step>
          <octave>4</octave>
          <alter>0</alter></pitch>
        <duration>240</duration>
        <voice>1</voice>
        <type>eighth</type>
        <stem>down</stem>
        <notations>
          <articulations>
            <staccato />
            </articulations>
          </notations>
        <lyric><text>north</text></lyric></note>
      <note default-x="567.11" default-y="-730.00" dynamics="93.33">
        <pitch>
          <step>G</step>
          <octave>4</octave>
          <alter>0</alter></pitch>
        <duration>720</duration>
        <voice>1</voice>
        <type>quarter</type>
        <dot />
        <stem>down</stem>
        <lyric><text>wes</text></lyric></note>
      </measure>
    <measure number="22" width="966.48">
      <print new-page="yes">
        <staff-layout number="1">
          <staff-distance>65.00</staff-distance>
          </staff-layout>
        </print>
      <note>
        <rest />
        <duration>480</duration>
        <voice>1</voice>
        <type>quarter</type>
        </note>
      <note default-x="255.53" default-y="-750.00" dynamics="92.22">
        <pitch>
          <step>C</step>
          <octave>4</octave>
          <alter>0</alter></pitch>
        <duration>480</duration>
        <voice>1</voice>
        <type>quarter</type>
        <stem>down</stem>
        <lyric><text>ter</text></lyric></note>
      <note default-x="491.02" default-y="-750.00" dynamics="95.56">
        <pitch>
          <step>C</step>
          <octave>4</octave>
          <alter>0</alter></pitch>
        <duration>480</duration>
        <voice>1</voice>
        <type>quarter</type>
        <stem>down</stem>
        <lyric><text>lee</text></lyric></note>
      <note default-x="698.28" default-y="-745.00" dynamics="88.89">
        <pitch>
          <step>D</step>
          <octave>4</octave>
          <alter>0</alter></pitch>
        <duration>480</duration>
        <voice>1</voice>
        <type>quarter</type>
        <stem>down</stem>
        <lyric><text>twen</text></lyric></note>
      </measure>
    <measure number="23" width="966.48">
      <print new-page="yes">
        <staff-layout number="1">
          <staff-distance>65.00</staff-distance>
          </staff-layout>
        </print>
      <note default-x="53.63" default-y="-740.00" dynamics="66.67">
        <pitch>
          <step>E</step>
          <octave>4</octave>
          <alter>0</alter></pitch>
        <duration>1440</duration>
        <voice>1</voice>
        <type>half</type>
        <dot />
        <stem>down</stem>
        <lyric><text>tee</text></lyric></note>
      <note default-x="783.01" default-y="-730.00" dynamics="88.89">
        <pitch>
          <step>G</step>
          <octave>4</octave>
          <alter>0</alter></pitch>
        <duration>480</duration>
        <voice>1</voice>
        <type>quarter</type>
        <stem>down</stem>
        <lyric><text>to</text></lyric></note>
      </measure>
    <measure number="24" width="966.48">
      <print new-page="yes">
        <staff-layout number="1">
          <staff-distance>65.00</staff-distance>
          </staff-layout>
        </print>
      <note default-x="53.18" default-y="-745.00" dynamics="62.22">
        <pitch>
          <step>D</step>
          <octave>4</octave>
          <alter>0</alter></pitch>
        <duration>1440</duration>
        <voice>1</voice>
        <type>half</type>
        <dot />
        <stem>down</stem>
        <lyric><text>thir</text></lyric></note>
      <note default-x="752.65" default-y="-740.00" dynamics="88.89">
        <pitch>
          <step>E</step>
          <octave>4</octave>
          <alter>0</alter></pitch>
        <duration>480</duration>
        <voice>1</voice>
        <type>quarter</type>
        <stem>down</stem>
        <lyric><text>tee</text></lyric></note>
      </measure>
    <measure number="25" width="966.48">
      <print new-page="yes">
        <staff-layout number="1">
          <staff-distance>65.00</staff-distance>
          </staff-layout>
        </print>
      <note default-x="69.26" default-y="-735.00" dynamics="94.44">
        <pitch>
          <step>F</step>
          <octave>4</octave>
          <alter>0</alter></pitch>
        <duration>320</duration>
        <voice>1</voice>
        <type>quarter</type>
        <time-modification>
          <actual-notes>3</actual-notes>
          <normal-notes>2</normal-notes>
          <normal-type>eighth</normal-type>
          </time-modification>
        <stem>down</stem>
        <notations>
          <tuplet bracket="yes" type="start" />
          </notations>
        <lyric><text>kee</text></lyric></note>
      <note default-x="212.26" default-y="-740.00" dynamics="73.33">
        <pitch>
          <step>E</step>
          <octave>4</octave>
          <alter>0</alter></pitch>
        <duration>160</duration>
        <tie type="start" />
        <voice>1</voice>
        <type>eighth</type>
        <time-modification>
          <actual-notes>3</actual-notes>
          <normal-notes>2</normal-notes>
          <normal-type>eighth</normal-type>
          </time-modification>
        <stem>down</stem>
        <notations>
          <tied type="start" />
          <tuplet type="stop" />
          </notations>
        <lyric><text>low</text></lyric></note>
      <note default-x="322.20" default-y="-740.00" dynamics="73.33">
        <pitch>
          <step>E</step>
          <octave>4</octave>
          <alter>0</alter></pitch>
        <duration>480</duration>
        <tie type="stop" />
        <voice>1</voice>
        <type>quarter</type>
        <stem>down</stem>
        <notations>
          <tied type="stop" />
          </notations>
        <lyric><text>me</text></lyric></note>
      <note default-x="557.27" default-y="-745.00" dynamics="88.89">
        <pitch>
          <step>D</step>
          <octave>4</octave>
          <alter>0</alter></pitch>
        <duration>480</duration>
        <voice>1</voice>
        <type>quarter</type>
        <stem>down</stem>
        <lyric><text>ters</text></lyric></note>
      <note default-x="707.34" default-y="-750.00" dynamics="88.89">
        <pitch>
          <step>C</step>
          <octave>4</octave>
          <alter>0</alter></pitch>
        <duration>480</duration>
        <voice>1</voice>
        <type>quarter</type>
        <stem>down</stem>
        <lyric><text>per</text></lyric></note>
      </measure>
    <measure number="26" width="966.48">
      <print new-page="yes">
        <staff-layout number="1">
          <staff-distance>65.00</staff-distance>
          </staff-layout>
        </print>
      <note>
        <rest />
        <duration>320</duration>
        <voice>1</voice>
        <type>quarter</type>
        <time-modification>
          <actual-notes>3</actual-notes>
          <normal-notes>2</normal-notes>
          <normal-type>eighth</normal-type>
          </time-modification>
        <notations>
          <tuplet bracket="yes" type="start" />
          </notations>
        </note>
      <note default-x="166.81" default-y="-745.00" dynamics="85.56">
        <pitch>
          <step>D</step>
          <octave>4</octave>
          <alter>0</alter></pitch>
        <duration>160</duration>
        <tie type="start" />
        <voice>1</voice>
        <type>eighth</type>
        <time-modification>
          <actual-notes>3</actual-notes>
          <normal-notes>2</normal-notes>
          <normal-type>eighth</normal-type>
          </time-modification>
        <stem>up</stem>
        <notations>
          <tied type="start" />
          <tuplet type="stop" />
          </notations>
        <lyric><text>hour</text></lyric></note>
      <note default-x="313.49" default-y="-745.00" dynamics="85.56">
        <pitch>
          <step>D</step>
          <octave>4</octave>
          <alter>0</alter></pitch>
        <duration>480</duration>
        <tie type="stop" />
        <voice>1</voice>
        <type>quarter</type>
        <stem>up</stem>
        <notations>
          <tied type="stop" />
          </notations>
        <lyric><text>shif</text></lyric></note>
      <note default-x="524.76" default-y="-740.00" dynamics="85.56">
        <pitch>
          <step>E</step>
          <octave>4</octave>
          <alter>0</alter></pitch>
        <duration>480</duration>
        <voice>1</voice>
        <type>quarter</type>
        <stem>up</stem>
        <lyric><text>ting</text></lyric></note>
      <note default-x="733.14" default-y="-735.00" dynamics="94.44">
        <pitch>
          <step>F</step>
          <octave>4</octave>
          <alter>0</alter></pitch>
        <duration>480</duration>
        <voice>1</voice>
        <type>quarter</type>
        <stem>up</stem>
        <lyric><text>south</text></lyric></note>
      <backup>
        <duration>1920</duration>
        </backup>
      <note default-x="65.04" default-y="-740.00" dynamics="81.11">
        <pitch>
          <step>E</step>
          <octave>4</octave>
          <alter>0</alter></pitch>
        <duration>480</duration>
        <voice>2</voice>
        <type>quarter</type>
        <stem>down</stem>
        <notations>
          <articulations>
            <staccato />
            </articulations>
          </notations>
        <lyric><text>er</text></lyric></note>
      <note>
        <rest />
        <duration>480</duration>
        <voice>2</voice>
        <type>quarter</type>
        </note>
      <note>
        <rest />
        <duration>960</duration>
        <voice>2</voice>
        <type>half</type>
        </note>
      </measure>
    <measure number="27" width="966.48">
      <print new-page="yes">
        <staff-layout number="1">
          <staff-distance>65.00</staff-distance>
          </staff-layout>
        </print>
      <note default-x="56.50" default-y="-725.00" dynamics="78.89">
        <pitch>
          <step>A</step>
          <octave>4</octave>
          <alter>0</alter></pitch>
        <duration>160</duration>
        <voice>1</voice>
        <type>eighth</type>
        <time-modification>
          <actual-notes>3</actual-notes>
          <normal-notes>2</normal-notes>
          </time-modification>
        <stem>down</stem>
        <notations>
          <tuplet bracket="yes" type="start" />
          </notations>
        <lyric><text>lee</text></lyric></note>
      <note>
        <rest />
        <duration>160</duration>
        <voice>1</voice>
        <type>eighth</type>
        <time-modification>
          <actual-notes>3</actual-notes>
          <normal-notes>2</normal-notes>
          </time-modification>
        </note>
      <note default-x="195.87" default-y="-730.00" dynamics="51.11">
        <pitch>
          <step>G</step>
          <octave>4</octave>
          <alter>0</alter></pitch>
        <duration>160</duration>
        <tie type="start" />
        <voice>1</voice>
        <type>eighth</type>
        <time-modification>
          <actual-notes>3</actual-notes>
          <normal-notes>2</normal-notes>
          </time-modification>
        <stem>down</stem>
        <notations>
          <tied type="start" />
          <tuplet type="stop" />
          </notations>
        <lyric><text>ear</text></lyric></note>
      <note default-x="345.43" default-y="-730.00" dynamics="51.11">
        <pitch>
          <step>G</step>
          <octave>4</octave>
          <alter>0</alter></pitch>
        <duration>960</duration>
        <tie type="stop" />
        <voice>1</voice>
        <type>half</type>
        <stem>down</stem>
        <notations>
          <tied type="stop" />
          </notations>
        <lyric><text>lee</text></lyric></note>
      <note>
        <rest />
        <duration>240</duration>
        <voice>1</voice>
        <type>eighth</type>
        </note>
      <note>
        <rest />
        <duration>60</duration>
        <voice>1</voice>
        <type>32nd</type>
        </note>
      <note default-x="863.84" default-y="-740.00" dynamics="78.89">
        <pitch>
          <step>E</step>
          <octave>4</octave>
          <alter>0</alter></pitch>
        <duration>180</duration>
        <voice>1</voice>
        <type>16th</type>
        <dot />
        <stem>down</stem>
        <notations>
          <articulations>
            <staccato />
            </articulations>
          </notations>
        <lyric><text>in</text></lyric></note>
      </measure>
    <measure number="28" width="966.48">
      <print new-page="yes">
        <staff-layout number="1">
          <staff-distance>65.00</staff-distance>
          </staff-layout>
        </print>
      <note default-x="56.50" default-y="-725.00" dynamics="81.11">
        <pitch>
          <step>A</step>
          <octave>4</octave>
          <alter>0</alter></pitch>
        <duration>240</duration>
        <voice>1</voice>
        <type>eighth</type>
        <stem>down</stem>
        <beam number="1">begin</beam>
        <lyric><text>the</text></lyric></note>
      <note default-x="136.10" default-y="-730.00" dynamics="82.22">
        <pitch>
          <step>G</step>
          <octave>4</octave>
          <alter>0</alter></pitch>
        <duration>240</duration>
        <tie type="start" />
        <voice>1</voice>
        <type>eighth</type>
        <stem>down</stem>
        <beam number="1">end</beam>
        <notations>
          <tied type="start" />
          </notations>
        <lyric><text>morn</text></lyric></note>
      <note default-x="330.37" default-y="-730.00" dynamics="82.22">
        <pitch>
          <step>G</step>
          <octave>4</octave>
          <alter>0</alter></pitch>
        <duration>160</duration>
        <tie type="stop" />
        <voice>1</voice>
        <type>eighth</type>
        <time-modification>
          <actual-notes>3</actual-notes>
          <normal-notes>2</normal-notes>
          </time-modification>
        <stem>down</stem>
        <notations>
          <tied type="stop" />
          <tuplet bracket="yes" type="start" />
          </notations>
        <lyric><text>ing</text></lyric></note>
      <note>
        <rest />
        <duration>160</duration>
        <voice>1</voice>
        <type>eighth</type>
        <time-modification>
          <actual-notes>3</actual-notes>
          <normal-notes>2</normal-notes>
          </time-modification>
        </note>
      <note default-x="522.73" default-y="-730.00" dynamics="96.67">
        <pitch>
          <step>G</step>
          <octave>4</octave>
          <alter>0</alter></pitch>
        <duration>160</duration>
        <tie type="start" />
        <voice>1</voice>
        <type>eighth</type>
        <time-modification>
          <actual-notes>3</actual-notes>
          <normal-notes>2</normal-notes>
          </time-modification>
        <stem>down</stem>
        <notations>
          <tied type="start" />
          <tuplet type="stop" />
          </notations>
        <lyric><text>then</text></lyric></note>
      <note default-x="604.84" default-y="-730.00" dynamics="96.67">
        <pitch>
          <step>G</step>
          <octave>4</octave>
          <alter>0</alter></pitch>
        <duration>480</duration>
        <tie type="stop" />
        <voice>1</voice>
        <type>quarter</type>
        <stem>down</stem>
        <notations>
          <tied type="stop" />
          </notations>
        <lyric><text>be</text></lyric></note>
      <note>
        <rest />
        <duration>240</duration>
        <voice>1</voice>
        <type>eighth</type>
        </note>
      <note default-x="857.17" default-y="-740.00" dynamics="78.89">
        <pitch>
          <step>E</step>
          <octave>4</octave>
          <alter>0</alter></pitch>
        <duration>240</duration>
        <voice>1</voice>
        <type>eighth</type>
        <stem>down</stem>
        <notations>
          <articulations>
            <staccato />
            </articulations>
          </notations>
        <lyric><text>com</text></lyric></note>
      </measure>
    <measure number="29" width="966.48">
      <print new-page="yes">
        <staff-layout number="1">
          <staff-distance>65.00</staff-distance>
          </staff-layout>
        </print>
      <note default-x="69.41" default-y="-720.00" dynamics="96.67">
        <pitch>
          <step>B</step>
          <octave>4</octave>
          <alter>0</alter></pitch>
        <duration>240</duration>
        <voice>1</voice>
        <type>eighth</type>
        <stem>down</stem>
        <notations>
          <articulations>
            <staccato />
            </articulations>
          </notations>
        <lyric><text>ming</text></lyric></note>
      <note default-x="128.48" default-y="-725.00" dynamics="88.89">
        <pitch>
          <step>A</step>
          <octave>4</octave>
          <alter>0</alter></pitch>
        <duration>480</duration>
        <voice>1</voice>
        <type>quarter</type>
        <stem>down</stem>
        <lyric><text>south</text></lyric></note>
      <note default-x="402.06" default-y="-730.00" dynamics="92.22">
        <pitch>
          <step>G</step>
          <octave>4</octave>
          <alter>0</alter></pitch>
        <duration>240</duration>
        <tie type="start" />
        <voice>1</voice>
        <type>eighth</type>
        <stem>down</stem>
        <notations>
          <tied type="start" />
          </notations>
        <lyric><text>to</text></lyric></note>
      <note default-x="533.32" default-y="-730.00" dynamics="92.22">
        <pitch>
          <step>G</step>
          <octave>4</octave>
          <alter>0</alter></pitch>
        <duration>360</duration>
        <tie type="stop" />
        <voice>1</voice>
        <type>eighth</type>
        <dot />
        <stem>down</stem>
        <notations>
          <tied type="stop" />
          </notations>
        <lyric><text>south</text></lyric></note>
      <note>
        <rest />
        <duration>120</duration>
        <voice>1</voice>
        <type>16th</type>
        </note>
      <note default-x="783.07" default-y="-740.00" dynamics="95.56">
        <pitch>
          <step>E</step>
          <octave>4</octave>
          <alter>0</alter></pitch>
        <duration>480</duration>
        <voice>1</voice>
        <type>quarter</type>
        <stem>down</stem>
        <lyric><text>west</text></lyric></note>
      </measure>
    <measure number="30" width="966.48">
      <print new-page="yes">
        <staff-layout number="1">
          <staff-distance>65.00</staff-distance>
          </staff-layout>
        </print>
      <note default-x="64.88" default-y="-745.00" dynamics="75.56">
        <pitch>
          <step>D</step>
          <octave>4</octave>
          <alter>0</alter></pitch>
        <duration>480</duration>
        <voice>1</voice>
        <type>quarter</type>
        <stem>down</stem>
        <lyric><text>ter</text></lyric></note>
      <note default-x="220.01" default-y="-750.00" dynamics="85.56">
        <pitch>
          <step>C</step>
          <octave>4</octave>
          <alter>0</alter></pitch>
        <duration>480</duration>
        <voice>1</voice>
        <type>quarter</type>
        <stem>down</stem>
        <lyric><text>lee</text></lyric></note>
      <note default-x="447.64" default-y="-740.00" dynamics="85.56">
        <pitch>
          <step>E</step>
          <octave>4</octave>
          <alter>0</alter></pitch>
        <duration>160</duration>
        <voice>1</voice>
        <type>eighth</type>
        <time-modification>
          <actual-notes>3</actual-notes>
          <normal-notes>2</normal-notes>
          </time-modification>
        <stem>down</stem>
        <notations>
          <tuplet bracket="yes" type="start" />
          </notations>
        <lyric><text>and</text></lyric></note>
      <note>
        <rest />
        <duration>160</duration>
        <voice>1</voice>
        <type>eighth</type>
        <time-modification>
          <actual-notes>3</actual-notes>
          <normal-notes>2</normal-notes>
          </time-modification>
        </note>
      <note default-x="613.27" default-y="-745.00" dynamics="81.11">
        <pitch>
          <step>D</step>
          <octave>4</octave>
          <alter>0</alter></pitch>
        <duration>160</duration>
        <tie type="start" />
        <voice>1</voice>
        <type>eighth</type>
        <time-modification>
          <actual-notes>3</actual-notes>
          <normal-notes>2</normal-notes>
          </time-modification>
        <stem>down</stem>
        <notations>
          <tied type="start" />
          <tuplet type="stop" />
          </notations>
        <lyric><text>light</text></lyric></note>
      <note default-x="721.48" default-y="-745.00" dynamics="81.11">
        <pitch>
          <step>D</step>
          <octave>4</octave>
          <alter>0</alter></pitch>
        <duration>480</duration>
        <tie type="stop" />
        <voice>1</voice>
        <type>quarter</type>
        <stem>down</stem>
        <notations>
          <tied type="stop" />
          </notations>
        <lyric><text>in</text></lyric></note>
      </measure>
    <measure number="31" width="514.64">
      <print new-page="yes">
        <staff-layout number="1">
          <staff-distance>65.00</staff-distance>
          </staff-layout>
        </print>
      <note>
        <rest />
        <duration>1920</duration>
        <voice>1</voice>
        </note>
      </measure>
    <measure number="32" width="451.84">
      <note>
        <rest />
        <duration>1920</duration>
        <voice>1</voice>
        </note>
      </measure>
    <measure number="33" width="966.48">
      <print new-page="yes">
        <staff-layout number="1">
          <staff-distance>65.00</staff-distance>
          </staff-layout>
        </print>
      <note default-x="54.00" default-y="-740.00" dynamics="92.22">
        <pitch>
          <step>E</step>
          <octave>4</octave>
          <alter>0</alter></pitch>
        <duration>480</duration>
        <voice>1</voice>
        <type>quarter</type>
        <stem>down</stem>
        <notations>
          <articulations>
            <staccato />
            </articulations>
          </notations>
        <lyric><text>the</text></lyric></note>
      <note default-x="301.34" default-y="-740.00" dynamics="92.22">
        <pitch>
          <step>E</step>
          <octave>4</octave>
          <alter>0</alter></pitch>
        <duration>160</duration>
        <voice>1</voice>
        <type>eighth</type>
        <time-modification>
          <actual-notes>3</actual-notes>
          <normal-notes>2</normal-notes>
          </time-modification>
        <stem>down</stem>
        <notations>
          <tuplet bracket="yes" type="start" />
          <articulations>
            <staccato />
            </articulations>
          </notations>
        <lyric><text>ee</text></lyric></note>
      <note>
        <rest />
        <duration>160</duration>
        <voice>1</voice>
        <type>eighth</type>
        <time-modification>
          <actual-notes>3</actual-notes>
          <normal-notes>2</normal-notes>
          </time-modification>
        </note>
      <note default-x="438.89" default-y="-740.00" dynamics="88.89">
        <pitch>
          <step>E</step>
          <octave>4</octave>
          <alter>0</alter></pitch>
        <duration>160</duration>
        <voice>1</voice>
        <type>eighth</type>
        <time-modification>
          <actual-notes>3</actual-notes>
          <normal-notes>2</normal-notes>
          </time-modification>
        <stem>down</stem>
        <notations>
          <tuplet type="stop" />
          </notations>
        <lyric><text>ven</text></lyric></note>
      <note default-x="517.83" default-y="-735.00" dynamics="91.11">
        <pitch>
          <step>F</step>
          <octave>4</octave>
          <alter>0</alter></pitch>
        <duration>160</duration>
        <voice>1</voice>
        <type>eighth</type>
        <time-modification>
          <actual-notes>3</actual-notes>
          <normal-notes>2</normal-notes>
          </time-modification>
        <stem>down</stem>
        <notations>
          <tuplet bracket="yes" type="start" />
          <articulations>
            <staccato />
            </articulations>
          </notations>
        <lyric><text>ning</text></lyric></note>
      <note>
        <rest />
        <duration>160</duration>
        <voice>1</voice>
        <type>eighth</type>
        <time-modification>
          <actual-notes>3</actual-notes>
          <normal-notes>2</normal-notes>
          </time-modification>
        </note>
      <note default-x="632.40" default-y="-740.00" dynamics="81.11">
        <pitch>
          <step>E</step>
          <octave>4</octave>
          <alter>0</alter></pitch>
        <duration>160</duration>
        <voice>1</voice>
        <type>eighth</type>
        <time-modification>
          <actual-notes>3</actual-notes>
          <normal-notes>2</normal-notes>
          </time-modification>
        <stem>down</stem>
        <notations>
          <tuplet type="stop" />
          </notations>
        <lyric><text>Part</text></lyric></note>
      <note default-x="730.41" default-y="-745.00" dynamics="81.11">
        <pitch>
          <step>D</step>
          <octave>4</octave>
          <alter>0</alter></pitch>
        <duration>160</duration>
        <voice>1</voice>
        <type>eighth</type>
        <time-modification>
          <actual-notes>3</actual-notes>
          <normal-notes>2</normal-notes>
          </time-modification>
        <stem>down</stem>
        <notations>
          <tuplet bracket="yes" type="start" />
          <articulations>
            <staccato />
            </articulations>
          </notations>
        <lyric><text>lee</text></lyric></note>
      <note>
        <rest />
        <duration>160</duration>
        <voice>1</voice>
        <type>eighth</type>
        <time-modification>
          <actual-notes>3</actual-notes>
          <normal-notes>2</normal-notes>
          </time-modification>
        </note>
      <note default-x="872.99" default-y="-750.00" dynamics="78.89">
        <pitch>
          <step>C</step>
          <octave>4</octave>
          <alter>0</alter></pitch>
        <duration>160</duration>
        <voice>1</voice>
        <type>eighth</type>
        <time-modification>
          <actual-notes>3</actual-notes>
          <normal-notes>2</normal-notes>
          </time-modification>
        <stem>down</stem>
        <notations>
          <tuplet type="stop" />
          </notations>
        <lyric><text>clow</text></lyric></note>
      </measure>
    <measure number="34" width="966.48">
      <print new-page="yes">
        <staff-layout number="1">
          <staff-distance>65.00</staff-distance>
          </staff-layout>
        </print>
      <note default-x="56.50" default-y="-740.00" dynamics="78.89">
        <pitch>
          <step>E</step>
          <octave>4</octave>
          <alter>0</alter></pitch>
        <duration>480</duration>
        <voice>1</voice>
        <type>quarter</type>
        <stem>down</stem>
        <lyric><text>dee</text></lyric></note>
      <note>
        <rest />
        <duration>480</duration>
        <voice>1</voice>
        <type>quarter</type>
        </note>
      <note>
        <rest />
        <duration>480</duration>
        <voice>1</voice>
        <type>quarter</type>
        </note>
      <note>
        <rest />
        <duration>320</duration>
        <voice>1</voice>
        <type>quarter</type>
        <time-modification>
          <actual-notes>3</actual-notes>
          <normal-notes>2</normal-notes>
          <normal-type>eighth</normal-type>
          </time-modification>
        <notations>
          <tuplet bracket="yes" type="start" />
          </notations>
        </note>
      <note default-x="864.06" default-y="-765.00" dynamics="96.67">
        <pitch>
          <step>G</step>
          <octave>3</octave>
          <alter>0</alter></pitch>
        <duration>160</duration>
        <voice>1</voice>
        <type>eighth</type>
        <time-modification>
          <actual-notes>3</actual-notes>
          <normal-notes>2</normal-notes>
          <normal-type>eighth</normal-type>
          </time-modification>
        <stem>up</stem>
        <notations>
          <tuplet type="stop" />
          </notations>
        <lyric><text>High</text></lyric></note>
      </measure>
    <measure number="35" width="966.48">
      <print new-page="yes">
        <staff-layout number="1">
          <staff-distance>65.00</staff-distance>
          </staff-layout>
        </print>
      <note default-x="69.76" default-y="-730.00" dynamics="96.67">
        <pitch>
          <step>G</step>
          <octave>4</octave>
          <alter>0</alter></pitch>
        <duration>480</duration>
        <voice>1</voice>
        <type>quarter</type>
        <stem>down</stem>
        <notations>
          <articulations>
            <staccato />
            </articulations>
          </notations>
        <lyric><text>chance</text></lyric></note>
      <note default-x="241.40" default-y="-730.00" dynamics="95.56">
        <pitch>
          <step>G</step>
          <octave>4</octave>
          <alter>0</alter></pitch>
        <duration>160</duration>
        <voice>1</voice>
        <type>eighth</type>
        <time-modification>
          <actual-notes>3</actual-notes>
          <normal-notes>2</normal-notes>
          </time-modification>
        <stem>down</stem>
        <notations>
          <tuplet bracket="yes" type="start" />
          </notations>
        <lyric><text>of</text></lyric></note>
      <note>
        <rest />
        <duration>160</duration>
        <voice>1</voice>
        <type>eighth</type>
        <time-modification>
          <actual-notes>3</actual-notes>
          <normal-notes>2</normal-notes>
          </time-modification>
        </note>
      <note default-x="393.55" default-y="-730.00" dynamics="88.89">
        <pitch>
          <step>G</step>
          <octave>4</octave>
          <alter>0</alter></pitch>
        <duration>160</duration>
        <voice>1</voice>
        <type>eighth</type>
        <time-modification>
          <actual-notes>3</actual-notes>
          <normal-notes>2</normal-notes>
          </time-modification>
        <stem>down</stem>
        <notations>
          <tuplet type="stop" />
          </notations>
        <lyric><text>show</text></lyric></note>
      <note default-x="482.65" default-y="-725.00" dynamics="81.11">
        <pitch>
          <step>A</step>
          <octave>4</octave>
          <alter>0</alter></pitch>
        <duration>160</duration>
        <voice>1</voice>
        <type>eighth</type>
        <time-modification>
          <actual-notes>3</actual-notes>
          <normal-notes>2</normal-notes>
          </time-modification>
        <stem>down</stem>
        <notations>
          <tuplet bracket="yes" type="start" />
          </notations>
        <lyric><text>ers</text></lyric></note>
      <note>
        <rest />
        <duration>160</duration>
        <voice>1</voice>
        <type>eighth</type>
        <time-modification>
          <actual-notes>3</actual-notes>
          <normal-notes>2</normal-notes>
          </time-modification>
        </note>
      <note default-x="614.06" default-y="-730.00" dynamics="78.89">
        <pitch>
          <step>G</step>
          <octave>4</octave>
          <alter>0</alter></pitch>
        <duration>160</duration>
        <voice>1</voice>
        <type>eighth</type>
        <time-modification>
          <actual-notes>3</actual-notes>
          <normal-notes>2</normal-notes>
          </time-modification>
        <stem>down</stem>
        <notations>
          <tuplet type="stop" />
          </notations>
        <lyric><text>most</text></lyric></note>
      <note default-x="721.61" default-y="-735.00" dynamics="96.67">
        <pitch>
          <step>F</step>
          <octave>4</octave>
          <alter>0</alter></pitch>
        <duration>240</duration>
        <voice>1</voice>
        <type>eighth</type>
        <stem>down</stem>
        <lyric><text>like</text></lyric></note>
      <note>
        <rest />
        <duration>60</duration>
        <voice>1</voice>
        <type>32nd</type>
        </note>
      <note default-x="849.39" default-y="-740.00" dynamics="96.67">
        <pitch>
          <step>E</step>
          <octave>4</octave>
          <alter>0</alter></pitch>
        <duration>180</duration>
        <voice>1</voice>
        <type>16th</type>
        <dot />
        <stem>down</stem>
        <notations>
          <articulations>
            <staccato />
            </articulations>
          </notations>
        <lyric><text>lee</text></lyric></note>
      </measure>
    <measure number="36" width="966.48">
      <print new-page="yes">
        <staff-layout number="1">
          <staff-distance>65.00</staff-distance>
          </staff-layout>
        </print>
      <note default-x="69.26" default-y="-740.00" dynamics="95.56">
        <pitch>
          <step>E</step>
          <octave>4</octave>
          <alter>0</alter></pitch>
        <duration>480</duration>
        <voice>1</voice>
        <type>quarter</type>
        <stem>down</stem>
        <lyric><text>in</text></lyric></note>
      <note default-x="334.70" default-y="-735.00" dynamics="96.67">
        <pitch>
          <step>F</step>
          <octave>4</octave>
          <alter>0</alter></pitch>
        <duration>480</duration>
        <voice>1</voice>
        <type>quarter</type>
        <stem>down</stem>
        <notations>
          <articulations>
            <staccato />
            </articulations>
          </notations>
        <lyric><text>the</text></lyric></note>
      <note default-x="560.21" default-y="-745.00" dynamics="96.67">
        <pitch>
          <step>D</step>
          <octave>4</octave>
          <alter>0</alter></pitch>
        <duration>480</duration>
        <voice>1</voice>
        <type>quarter</type>
        <stem>down</stem>
        <lyric><text>mor</text></lyric></note>
      <note default-x="749.70" default-y="-750.00" dynamics="96.67">
        <pitch>
          <step>C</step>
          <octave>4</octave>
          <alter>0</alter></pitch>
        <duration>480</duration>
        <voice>1</voice>
        <type>quarter</type>
        <stem>down</stem>
        <notations>
          <articulations>
            <staccato />
            </articulations>
          </notations>
        <lyric><text>ning</text></lyric></note>
      </measure>
    <measure number="37" width="966.48">
      <print new-page="yes">
        <staff-layout number="1">
          <staff-distance>65.00</staff-distance>
          </staff-layout>
        </print>
      <note default-x="53.07" default-y="-720.00" dynamics="95.56">
        <pitch>
          <step>B</step>
          <octave>4</octave>
          <alter>0</alter></pitch>
        <duration>480</duration>
        <voice>1</voice>
        <type>quarter</type>
        <stem>down</stem>
        <lyric><text>Snow</text></lyric></note>
      <note>
        <rest />
        <duration>480</duration>
        <voice>1</voice>
        <type>quarter</type>
        </note>
      <note default-x="505.62" default-y="-725.00" dynamics="88.89">
        <pitch>
          <step>A</step>
          <octave>4</octave>
          <alter>0</alter></pitch>
        <duration>160</duration>
        <voice>1</voice>
        <type>eighth</type>
        <time-modification>
          <actual-notes>3</actual-notes>
          <normal-notes>2</normal-notes>
          </time-modification>
        <stem>down</stem>
        <notations>
          <tuplet bracket="yes" type="start" />
          </notations>
        <lyric><text>fall</text></lyric></note>
      <note>
        <rest />
        <duration>160</duration>
        <voice>1</voice>
        <type>eighth</type>
        <time-modification>
          <actual-notes>3</actual-notes>
          <normal-notes>2</normal-notes>
          </time-modification>
        </note>
      <note default-x="631.07" default-y="-730.00" dynamics="95.56">
        <pitch>
          <step>G</step>
          <octave>4</octave>
          <alter>0</alter></pitch>
        <duration>160</duration>
        <voice>1</voice>
        <type>eighth</type>
        <time-modification>
          <actual-notes>3</actual-notes>
          <normal-notes>2</normal-notes>
          </time-modification>
        <stem>down</stem>
        <notations>
          <tuplet type="stop" />
          </notations>
        <lyric><text>ling</text></lyric></note>
      <note default-x="735.25" default-y="-735.00" dynamics="66.67">
        <pitch>
          <step>F</step>
          <alter>1</alter>
          <octave>4</octave>
          </pitch>
        <duration>160</duration>
        <voice>1</voice>
        <type>eighth</type>
        <accidental>sharp</accidental>
        <time-modification>
          <actual-notes>3</actual-notes>
          <normal-notes>2</normal-notes>
          </time-modification>
        <stem>down</stem>
        <notations>
          <tuplet bracket="yes" type="start" />
          <articulations>
            <staccato />
            </articulations>
          </notations>
        <lyric><text>uh</text></lyric></note>
      <note>
        <rest />
        <duration>160</duration>
        <voice>1</voice>
        <type>eighth</type>
        <time-modification>
          <actual-notes>3</actual-notes>
          <normal-notes>2</normal-notes>
          </time-modification>
        </note>
      <note default-x="860.70" default-y="-755.00" dynamics="95.56">
        <pitch>
          <step>B</step>
          <octave>3</octave>
          <alter>0</alter></pitch>
        <duration>160</duration>
        <voice>1</voice>
        <type>eighth</type>
        <time-modification>
          <actual-notes>3</actual-notes>
          <normal-notes>2</normal-notes>
          </time-modification>
        <stem>down</stem>
        <notations>
          <tuplet type="stop" />
          </notations>
        <lyric><text>bove</text></lyric></note>
      </measure>
    <measure number="38" width="966.48">
      <print new-page="yes">
        <staff-layout number="1">
          <staff-distance>65.00</staff-distance>
          </staff-layout>
        </print>
      <note default-x="53.54" default-y="-720.00" dynamics="96.67">
        <pitch>
          <step>B</step>
          <octave>4</octave>
          <alter>0</alter></pitch>
        <duration>480</duration>
        <voice>1</voice>
        <type>quarter</type>
        <stem>down</stem>
        <notations>
          <articulations>
            <staccato />
            </articulations>
          </notations>
        <lyric><text>sev</text></lyric></note>
      <note>
        <rest />
        <duration>480</duration>
        <voice>1</voice>
        <type>quarter</type>
        </note>
      <note default-x="535.50" default-y="-725.00" dynamics="95.56">
        <pitch>
          <step>A</step>
          <octave>4</octave>
          <alter>0</alter></pitch>
        <duration>480</duration>
        <voice>1</voice>
        <type>quarter</type>
        <stem>down</stem>
        <notations>
          <articulations>
            <staccato />
            </articulations>
          </notations>
        <lyric><text>ven</text></lyric></note>
      <note>
        <rest />
        <duration>480</duration>
        <voice>1</voice>
        <type>quarter</type>
        </note>
      </measure>
    <measure number="39" width="966.48">
      <print new-page="yes">
        <staff-layout number="1">
          <staff-distance>65.00</staff-distance>
          </staff-layout>
        </print>
      <note default-x="69.26" default-y="-730.00" dynamics="96.67">
        <pitch>
          <step>G</step>
          <octave>4</octave>
          <alter>0</alter></pitch>
        <duration>480</duration>
        <voice>1</voice>
        <type>quarter</type>
        <stem>down</stem>
        <notations>
          <articulations>
            <staccato />
            </articulations>
          </notations>
        <lyric><text>hun</text></lyric></note>
      <note default-x="251.29" default-y="-730.00" dynamics="96.67">
        <pitch>
          <step>G</step>
          <octave>4</octave>
          <alter>0</alter></pitch>
        <duration>320</duration>
        <voice>1</voice>
        <type>quarter</type>
        <time-modification>
          <actual-notes>3</actual-notes>
          <normal-notes>2</normal-notes>
          <normal-type>eighth</normal-type>
          </time-modification>
        <stem>down</stem>
        <notations>
          <tuplet bracket="yes" type="start" />
          </notations>
        <lyric><text>dred</text></lyric></note>
      <note default-x="373.65" default-y="-740.00" dynamics="78.89">
        <pitch>
          <step>E</step>
          <octave>4</octave>
          <alter>0</alter></pitch>
        <duration>160</duration>
        <voice>1</voice>
        <type>eighth</type>
        <time-modification>
          <actual-notes>3</actual-notes>
          <normal-notes>2</normal-notes>
          <normal-type>eighth</normal-type>
          </time-modification>
        <stem>down</stem>
        <notations>
          <tuplet type="stop" />
          </notations>
        <lyric><text>me</text></lyric></note>
      <note default-x="468.14" default-y="-735.00" dynamics="87.78">
        <pitch>
          <step>F</step>
          <octave>4</octave>
          <alter>0</alter></pitch>
        <duration>160</duration>
        <voice>1</voice>
        <type>eighth</type>
        <time-modification>
          <actual-notes>3</actual-notes>
          <normal-notes>2</normal-notes>
          </time-modification>
        <stem>down</stem>
        <notations>
          <tuplet bracket="yes" type="start" />
          </notations>
        <lyric><text>ters</text></lyric></note>
      <note>
        <rest />
        <duration>160</duration>
        <voice>1</voice>
        <type>eighth</type>
        <time-modification>
          <actual-notes>3</actual-notes>
          <normal-notes>2</normal-notes>
          </time-modification>
        </note>
      <note default-x="607.50" default-y="-730.00" dynamics="81.11">
        <pitch>
          <step>G</step>
          <octave>4</octave>
          <alter>0</alter></pitch>
        <duration>160</duration>
        <voice>1</voice>
        <type>eighth</type>
        <time-modification>
          <actual-notes>3</actual-notes>
          <normal-notes>2</normal-notes>
          </time-modification>
        <stem>down</stem>
        <notations>
          <tuplet type="stop" />
          </notations>
        <lyric><text>Poss</text></lyric></note>
      <note default-x="719.57" default-y="-735.00" dynamics="96.67">
        <pitch>
          <step>F</step>
          <octave>4</octave>
          <alter>0</alter></pitch>
        <duration>160</duration>
        <voice>1</voice>
        <type>eighth</type>
        <time-modification>
          <actual-notes>3</actual-notes>
          <normal-notes>2</normal-notes>
          </time-modification>
        <stem>down</stem>
        <notations>
          <tuplet bracket="yes" type="start" />
          </notations>
        <lyric><text>uh</text></lyric></note>
      <note>
        <rest />
        <duration>160</duration>
        <voice>1</voice>
        <type>eighth</type>
        <time-modification>
          <actual-notes>3</actual-notes>
          <normal-notes>2</normal-notes>
          </time-modification>
        </note>
      <note default-x="858.94" default-y="-740.00" dynamics="73.33">
        <pitch>
          <step>E</step>
          <octave>4</octave>
          <alter>0</alter></pitch>
        <duration>160</duration>
        <voice>1</voice>
        <type>eighth</type>
        <time-modification>
          <actual-notes>3</actual-notes>
          <normal-notes>2</normal-notes>
          </time-modification>
        <stem>down</stem>
        <notations>
          <tuplet type="stop" />
          <articulations>
            <staccato />
            </articulations>
          </notations>
        <lyric><text>ble</text></lyric></note>
      </measure>
    <measure number="40" width="966.48">
      <print new-page="yes">
        <staff-layout number="1">
          <staff-distance>65.00</staff-distance>
          </staff-layout>
        </print>
      <note default-x="63.94" default-y="-730.00" dynamics="96.67">
        <pitch>
          <step>G</step>
          <octave>4</octave>
          <alter>0</alter></pitch>
        <duration>480</duration>
        <voice>1</voice>
        <type>quarter</type>
        <stem>down</stem>
        <notations>
          <articulations>
            <staccato />
            </articulations>
          </notations>
        <lyric><text>hail</text></lyric></note>
      <note default-x="306.59" default-y="-730.00" dynamics="96.67">
        <pitch>
          <step>G</step>
          <octave>4</octave>
          <alter>0</alter></pitch>
        <duration>160</duration>
        <voice>1</voice>
        <type>eighth</type>
        <time-modification>
          <actual-notes>3</actual-notes>
          <normal-notes>2</normal-notes>
          </time-modification>
        <stem>down</stem>
        <notations>
          <tuplet bracket="yes" type="start" />
          </notations>
        <lyric><text>in</text></lyric></note>
      <note>
        <rest />
        <duration>160</duration>
        <voice>1</voice>
        <type>eighth</type>
        <time-modification>
          <actual-notes>3</actual-notes>
          <normal-notes>2</normal-notes>
          </time-modification>
        </note>
      <note default-x="460.81" default-y="-740.00" dynamics="56.67">
        <pitch>
          <step>E</step>
          <octave>4</octave>
          <alter>0</alter></pitch>
        <duration>160</duration>
        <voice>1</voice>
        <type>eighth</type>
        <time-modification>
          <actual-notes>3</actual-notes>
          <normal-notes>2</normal-notes>
          </time-modification>
        <stem>down</stem>
        <notations>
          <tuplet type="stop" />
          </notations>
        <lyric><text>the</text></lyric></note>
      <note default-x="555.41" default-y="-735.00" dynamics="96.67">
        <pitch>
          <step>F</step>
          <octave>4</octave>
          <alter>0</alter></pitch>
        <duration>160</duration>
        <voice>1</voice>
        <type>eighth</type>
        <time-modification>
          <actual-notes>3</actual-notes>
          <normal-notes>2</normal-notes>
          </time-modification>
        <stem>down</stem>
        <notations>
          <tuplet bracket="yes" type="start" />
          </notations>
        <lyric><text>morn</text></lyric></note>
      <note>
        <rest />
        <duration>160</duration>
        <voice>1</voice>
        <type>eighth</type>
        <time-modification>
          <actual-notes>3</actual-notes>
          <normal-notes>2</normal-notes>
          </time-modification>
        </note>
      <note default-x="675.44" default-y="-730.00" dynamics="96.67">
        <pitch>
          <step>G</step>
          <octave>4</octave>
          <alter>0</alter></pitch>
        <duration>160</duration>
        <tie type="start" />
        <voice>1</voice>
        <type>eighth</type>
        <time-modification>
          <actual-notes>3</actual-notes>
          <normal-notes>2</normal-notes>
          </time-modification>
        <stem>down</stem>
        <notations>
          <tied type="start" />
          <tuplet type="stop" />
          </notations>
        <lyric><text>ning</text></lyric></note>
      <note default-x="749.09" default-y="-730.00" dynamics="96.67">
        <pitch>
          <step>G</step>
          <octave>4</octave>
          <alter>0</alter></pitch>
        <duration>480</duration>
        <tie type="stop" />
        <voice>1</voice>
        <type>quarter</type>
        <stem>down</stem>
        <notations>
          <tied type="stop" />
          </notations>
        <lyric><text>and</text></lyric></note>
      </measure>
    <measure number="41" width="966.48">
      <print new-page="yes">
        <staff-layout number="1">
          <staff-distance>65.00</staff-distance>
          </staff-layout>
        </print>
      <note>
        <rest />
        <duration>480</duration>
        <voice>1</voice>
        <type>quarter</type>
        </note>
      <note default-x="219.47" default-y="-750.00" dynamics="85.56">
        <pitch>
          <step>C</step>
          <octave>4</octave>
          <alter>0</alter></pitch>
        <duration>480</duration>
        <voice>1</voice>
        <type>quarter</type>
        <stem>down</stem>
        <lyric><text>af</text></lyric></note>
      <note default-x="485.43" default-y="-750.00" dynamics="78.89">
        <pitch>
          <step>C</step>
          <octave>4</octave>
          <alter>0</alter></pitch>
        <duration>480</duration>
        <voice>1</voice>
        <type>quarter</type>
        <stem>down</stem>
        <lyric><text>ter</text></lyric></note>
      <note default-x="700.51" default-y="-745.00" dynamics="47.78">
        <pitch>
          <step>D</step>
          <octave>4</octave>
          <alter>0</alter></pitch>
        <duration>480</duration>
        <voice>1</voice>
        <type>quarter</type>
        <stem>down</stem>
        <lyric><text>noon</text></lyric></note>
      </measure>
    <measure number="42" width="966.48">
      <print new-page="yes">
        <staff-layout number="1">
          <staff-distance>65.00</staff-distance>
          </staff-layout>
        </print>
      <note default-x="50.68" default-y="-740.00" dynamics="35.56">
        <pitch>
          <step>E</step>
          <octave>4</octave>
          <alter>0</alter></pitch>
        <duration>1920</duration>
        <voice>1</voice>
        <type>whole</type>
        <lyric><text>Winds</text></lyric></note>
      </measure>
    <measure number="43" width="545.01">
      <print new-page="yes">
        <staff-layout number="1">
          <staff-distance>65.00</staff-distance>
          </staff-layout>
        </print>
      <note>
        <rest />
        <duration>1920</duration>
        <voice>1</voice>
        </note>
      </measure>
    <measure number="44" width="245.91">
      <note>
        <rest />
        <duration>1920</duration>
        <voice>1</voice>
        </note>
      </measure>
    <measure number="45" width="175.57">
      <note>
        <rest />
        <duration>1920</duration>
        <voice>1</voice>
        </note>
      </measure>
    </part>
  </score-partwise>
